{
	"asset":{
		"generator":"Khronos glTF Blender I/O v4.5.47",
		"version":"2.0"
	},
	"scene":0,
	"scenes":[
		{
			"name":"Scene",
			"nodes":[
				8
			]
		}
	],
	"nodes":[
		{
			"name":"prime_blue",
			"rotation":[
				0.5000000596046448,
				0.4999999403953552,
				-0.5,
				0.5
			],
			"translation":[
				-12,
				-0.015757232904434204,
				0
			]
		},
		{
			"name":"prime_lemon",
			"rotation":[
				0.5000000596046448,
				0.4999999403953552,
				-0.5,
				0.5
			],
			"translation":[
				24,
				-0.015757232904434204,
				0
			]
		},
		{
			"name":"prime_orange",
			"rotation":[
				0.5000000596046448,
				0.4999999403953552,
				-0.5,
				0.5
			],
			"translation":[
				12,
				-0.015757232904434204,
				0
			]
		},
		{
			"name":"prime_strawberry",
			"rotation":[
				0.5000000596046448,
				0.4999999403953552,
				-0.5,
				0.5
			],
			"translation":[
				0,
				-0.015757232904434204,
				0
			]
		},
		{
			"mesh":0,
			"name":"prime_tropical_Material.003_0"
		},
		{
			"children":[
				4
			],
			"name":"prime_tropical",
			"rotation":[
				0.5000000596046448,
				0.4999999403953552,
				-0.5,
				0.5
			],
			"translation":[
				-24,
				-0.015757232904434204,
				0
			]
		},
		{
			"children":[
				0,
				1,
				2,
				3,
				5
			],
			"name":"RootNode"
		},
		{
			"children":[
				6
			],
			"name":"978ea2576793484fbcd158e9113bfc76.fbx",
			"rotation":[
				0.70710688829422,
				0,
				0,
				0.7071066498756409
			],
			"scale":[
				0.009999999776482582,
				0.010000000707805157,
				0.010000000707805157
			]
		},
		{
			"children":[
				7
			],
			"name":"Sketchfab_model",
			"rotation":[
				-0.70710688829422,
				0,
				0,
				0.7071066498756409
			]
		}
	],
	"meshes":[
		{
			"name":"prime_tropical_Material.003_0",
			"primitives":[
				{
					"attributes":{
						"POSITION":0,
						"NORMAL":1,
						"TEXCOORD_0":2,
						"TEXCOORD_1":3
					},
					"indices":4
				}
			]
		}
	],
	"accessors":[
		{
			"bufferView":0,
			"componentType":5126,
			"count":511,
			"max":[
				4.563624382019043,
				4.563624382019043,
				-0.039261579513549805
			],
			"min":[
				-4.563624382019043,
				-4.563624382019043,
				-24.951644897460938
			],
			"type":"VEC3"
		},
		{
			"bufferView":1,
			"componentType":5126,
			"count":511,
			"type":"VEC3"
		},
		{
			"bufferView":2,
			"componentType":5126,
			"count":511,
			"type":"VEC2"
		},
		{
			"bufferView":3,
			"componentType":5126,
			"count":511,
			"type":"VEC2"
		},
		{
			"bufferView":4,
			"componentType":5123,
			"count":1980,
			"type":"SCALAR"
		}
	],
	"bufferViews":[
		{
			"buffer":0,
			"byteLength":6132,
			"byteOffset":0,
			"target":34962
		},
		{
			"buffer":0,
			"byteLength":6132,
			"byteOffset":6132,
			"target":34962
		},
		{
			"buffer":0,
			"byteLength":4088,
			"byteOffset":12264,
			"target":34962
		},
		{
			"buffer":0,
			"byteLength":4088,
			"byteOffset":16352,
			"target":34962
		},
		{
			"buffer":0,
			"byteLength":3960,
			"byteOffset":20440,
			"target":34963
		}
	],
	"buffers":[
		{
			"byteLength":24400,
			"uri":"prime_can.bin"
		}
	]
}
