{
	"asset":{
		"generator":"Khronos glTF Blender I/O v4.5.47",
		"version":"2.0"
	},
	"extensionsUsed":[
		"KHR_materials_clearcoat"
	],
	"scene":0,
	"scenes":[
		{
			"name":"Scene",
			"nodes":[
				8
			]
		}
	],
	"nodes":[
		{
			"mesh":0,
			"name":"prime_blue_Material.002_0",
			"translation":[
				0,
				12,
				-0.015758663415908813
			]
		},
		{
			"children":[
				0
			],
			"name":"prime_blue",
			"rotation":[
				0.5000000596046448,
				0.4999999403953552,
				-0.5,
				0.5
			],
			"translation":[
				-12,
				-0.015757232904434204,
				0
			]
		},
		{
			"name":"prime_lemon",
			"rotation":[
				0.5000000596046448,
				0.4999999403953552,
				-0.5,
				0.5
			],
			"translation":[
				24,
				-0.015757232904434204,
				0
			]
		},
		{
			"name":"prime_orange",
			"rotation":[
				0.5000000596046448,
				0.4999999403953552,
				-0.5,
				0.5
			],
			"translation":[
				12,
				-0.015757232904434204,
				0
			]
		},
		{
			"name":"prime_strawberry",
			"rotation":[
				0.5000000596046448,
				0.4999999403953552,
				-0.5,
				0.5
			],
			"translation":[
				0,
				-0.015757232904434204,
				0
			]
		},
		{
			"name":"prime_tropical",
			"rotation":[
				0.5000000596046448,
				0.4999999403953552,
				-0.5,
				0.5
			],
			"translation":[
				-24,
				-0.015757232904434204,
				0
			]
		},
		{
			"children":[
				1,
				2,
				3,
				4,
				5
			],
			"name":"RootNode"
		},
		{
			"children":[
				6
			],
			"name":"978ea2576793484fbcd158e9113bfc76.fbx",
			"rotation":[
				0.70710688829422,
				0,
				0,
				0.7071066498756409
			],
			"scale":[
				0.009999999776482582,
				0.010000000707805157,
				0.010000000707805157
			]
		},
		{
			"children":[
				7
			],
			"name":"Sketchfab_model",
			"rotation":[
				-0.70710688829422,
				0,
				0,
				0.7071066498756409
			]
		}
	],
	"materials":[
		{
			"doubleSided":true,
			"extensions":{
				"KHR_materials_clearcoat":{
					"clearcoatFactor":1,
					"clearcoatRoughnessFactor":0.03999999910593033
				}
			},
			"name":"Material.002",
			"normalTexture":{
				"index":0
			},
			"pbrMetallicRoughness":{
				"baseColorTexture":{
					"index":1
				},
				"metallicFactor":0,
				"roughnessFactor":0.10000000149011612
			}
		}
	],
	"meshes":[
		{
			"name":"prime_blue_Material.002_0",
			"primitives":[
				{
					"attributes":{
						"POSITION":0,
						"NORMAL":1,
						"TEXCOORD_0":2,
						"TEXCOORD_1":3
					},
					"indices":4,
					"material":0
				}
			]
		}
	],
	"textures":[
		{
			"sampler":0,
			"source":0
		},
		{
			"sampler":0,
			"source":1
		}
	],
	"images":[
		{
			"mimeType":"image/png",
			"name":"Material.001_normal",
			"uri":"Material.001_normal.png"
		},
		{
			"mimeType":"image/png",
			"name":"Material.002_baseColor",
			"uri":"Material.002_baseColor.png"
		}
	],
	"accessors":[
		{
			"bufferView":0,
			"componentType":5126,
			"count":511,
			"max":[
				4.563624382019043,
				4.568841934204102,
				-0.038680821657180786
			],
			"min":[
				-4.563624382019043,
				-4.558406829833984,
				-24.951065063476562
			],
			"type":"VEC3"
		},
		{
			"bufferView":1,
			"componentType":5126,
			"count":511,
			"type":"VEC3"
		},
		{
			"bufferView":2,
			"componentType":5126,
			"count":511,
			"type":"VEC2"
		},
		{
			"bufferView":3,
			"componentType":5126,
			"count":511,
			"type":"VEC2"
		},
		{
			"bufferView":4,
			"componentType":5123,
			"count":1980,
			"type":"SCALAR"
		}
	],
	"bufferViews":[
		{
			"buffer":0,
			"byteLength":6132,
			"byteOffset":0,
			"target":34962
		},
		{
			"buffer":0,
			"byteLength":6132,
			"byteOffset":6132,
			"target":34962
		},
		{
			"buffer":0,
			"byteLength":4088,
			"byteOffset":12264,
			"target":34962
		},
		{
			"buffer":0,
			"byteLength":4088,
			"byteOffset":16352,
			"target":34962
		},
		{
			"buffer":0,
			"byteLength":3960,
			"byteOffset":20440,
			"target":34963
		}
	],
	"samplers":[
		{
			"magFilter":9729,
			"minFilter":9987
		}
	],
	"buffers":[
		{
			"byteLength":24400,
			"uri":"prime_can_3.bin"
		}
	]
}
